<svg viewBox="0 0 1837 459" xmlns="http://www.w3.org/2000/svg" fill-rule="evenodd" clip-rule="evenodd" stroke-linejoin="round" stroke-miterlimit="1.414"><g transform="matrix(.74614 0 0 .408 -23.877 -483.88)"><clipPath id="a"><path d="M32 1186h2462v1125H32z"/></clipPath><g clip-path="url(#a)"><path d="M1113.757 1650.662h75.126v338.736h15.67v-338.736h75.108v-28.656h-165.904v28.656zm-294.287-.684c28.022 0 50.817 38.327 50.817 85.427 0 64.614-19.059 104.994-50.817 108.017h-81.52v-180.27l32.144-5.34v.265l3.708-.654c2.194-.378 5.182-.95 8.628-1.634l.38-.071c11.771-2.278 29.563-5.74 36.66-5.74m0-28.676c-7.851 0-25.146 3.35-38.007 5.851v-.02l-59.193 9.845v353.38h15.68v-118.27l81.911-.02c22.075-2.094 39.844-18.291 51.392-46.835 9.483-23.468 14.715-55.371 14.715-89.828 0-62.898-29.842-114.103-66.498-114.103m566.623 35.151c11.263-2.288 28.267-5.74 35.052-5.74 29.083 0 52.71 43.27 52.71 96.426 0 30.944-8.192 60.223-21.806 78.125l-13.816 16.289-85.73-178.064 26.587-5.627c1.854-.378 4.132-.837 6.634-1.338l.369-.071zm38.816 200.806l-80.358 94.69v-261.58l80.358 166.89zm35.667-7.894c18.149-23.437 28.966-61.652 28.966-102.226 0-68.985-30.68-125.092-68.397-125.092-7.645 0-24.487 3.411-36.767 5.893l-52.23 10.988-3.16.674-.107 352.032 10.929.02 95.592-112.642 54.642 112.643h20.227l-61.545-128.32 11.85-13.97zm124.362 76.736c-12.62-25.643-19.567-59.099-19.567-94.26v-48.754c0-77.686 33.456-141.83 74.685-143.025l1.597-.102c16.652.225 32.874 10.876 45.975 30.116l-.056.317 3.636 6.148c15.764 26.593 24.437 63.266 24.437 103.268v48.784c0 77.686-33.478 141.84-74.69 142.994l-1.614.123c-19.255-.276-37.387-13.991-51.314-38.756l.072-.399-3.16-6.454zm120.688-265.114l-3.69-6.22c-16.737-28.032-38.326-43.473-60.942-43.473l-.475.05-.441-.05-3.256.132-2.552.266-.039.194c-47.6 6.7-84.53 81.035-84.53 171.2v48.755c0 39.123 7.255 76.889 20.467 106.78l-.201 1.032 3.216 6.434c17.217 34.497 41.52 54.279 66.694 54.279.257 0 .514-.01.77-.041l.274.03 4.981-.306.056-.143c47.254-5.933 85.379-81.995 85.379-171.313v-48.784c0-44.772-9.192-86.469-25.856-117.882l.145-.94zm242.136 282.72l-139.412-320.68h-14.922v367.361h15.676v-319.546l139.479 320.813h14.848v-367.718h-15.67v319.77zm96.418-319.781h15.675v367.371h-15.675zm67.448 26.777h73.36l-.016 335.253h15.686v-335.253h76.89v-28.666h-165.92v28.666zM972.43 1822.17l38.476-163.103 69.742 280.402-108.218-117.3zm33.952-216.422l-90.873 385.907h16.982l33.696-142.933 131.856 142.943 12.805-.061-96.011-385.856h-8.455zm1332.275 62.612l86.406 135.203h-86.406V1668.36zm0 294.077v-130.208h113.429v-24.101l-100.071-156.567h124.932v-28.676l-153.987.143v368.688l168.959-.061v-29.218h-153.262z" fill-rule="nonzero"/><g transform="matrix(5.5843 0 0 10.2124 -434.585 -446.363)"><clipPath id="b"><path d="M120.472 166.679l19.799 46.052 5.978 13.906-5.593 14.031 17.194-43.128-.936-2.177-30.723-35.522-5.719 6.838z"/></clipPath><g clip-path="url(#b)"><path d="M124.863 159.074l47.176 27.237-31.383 54.357-47.176-27.237 31.383-54.357z" fill="url(#_Linear3)" fill-rule="nonzero"/></g></g><g transform="matrix(5.5843 0 0 10.2124 -434.585 -446.363)"><clipPath id="c"><path d="M140.656 240.668l28.231-12.182 1.091-2.735-12.128-28.211-17.194 43.128zm5.885-14.606l-5.605 14.06 5.605-14.06z"/></clipPath><g clip-path="url(#c)"><path d="M140.656 240.668V197.54h29.322v43.128h-29.322z" fill="url(#_Linear5)" fill-rule="nonzero"/></g></g><g transform="matrix(5.5843 0 0 10.2124 -434.585 -446.363)"><clipPath id="d"><path d="M95.804 196.176l30.408 10.948 14.059 5.607-19.799-46.052-24.668 29.497z"/></clipPath><g clip-path="url(#d)"><path d="M88.912 181.396l31.56-14.717 21.175 45.41-31.56 14.717-21.175-45.41z" fill="url(#_Linear7)" fill-rule="nonzero"/></g></g><path d="M140.644 240.696l.012-.028-.012.028z" fill="url(#_Linear8)" fill-rule="nonzero" transform="matrix(5.5843 0 0 10.2124 -434.585 -446.363)"/><g transform="matrix(5.5843 0 0 10.2124 -434.585 -446.363)"><clipPath id="e"><path d="M106.699 261.307l20.64 8.23 30.388-13.063 11.16-27.988-28.231 12.182-.012.028-13.907 5.979-14.06-5.606-5.978-13.907v34.145z"/></clipPath><g clip-path="url(#e)"><path d="M142.877 282.195l-50.963-29.424 29.759-51.544 50.963 29.424-29.759 51.544z" fill="url(#_Linear10)" fill-rule="nonzero"/></g></g><g transform="matrix(5.5843 0 0 10.2124 -434.585 -446.363)"><clipPath id="f"><path d="M83.831 226.203l-.278.697 13.064 30.387 10.082 4.02v-34.145l5.607-14.06-28.475 13.101z"/></clipPath><g clip-path="url(#f)"><path d="M83.553 261.307v-48.205h28.753v48.205H83.553z" fill="url(#_Linear12)" fill-rule="nonzero"/></g></g><g transform="matrix(5.5843 0 0 10.2124 -434.585 -446.363)"><clipPath id="g"><path d="M83.831 226.203l28.475-13.101 13.906-5.978-30.408-10.948-11.973 30.027z"/></clipPath><g clip-path="url(#g)"><path d="M79.809 223.881l18.856-32.661 27.547 15.904-18.857 32.661-27.546-15.904z" fill="url(#_Linear14)" fill-rule="nonzero"/></g></g><path d="M126.737 246.675l13.907-5.979.012-.028-13.919 6.007z" fill="url(#_Linear15)" fill-rule="nonzero" transform="matrix(5.5843 0 0 10.2124 -434.585 -446.363)"/><path d="M146.249 226.637l-5.978-13.906 5.978 13.906z" fill="url(#_Linear16)" fill-rule="nonzero" transform="matrix(5.5843 0 0 10.2124 -434.585 -446.363)"/></g></g><defs><linearGradient id="_Linear3" x1="0" y1="0" x2="1" y2="0" gradientUnits="userSpaceOnUse" gradientTransform="rotate(30 -292.967 296.844) scale(54.4736)"><stop offset="0%" stop-color="#f15a29"/><stop offset="100%" stop-color="#ed1c24"/></linearGradient><linearGradient id="_Linear5" x1="0" y1="0" x2="1" y2="0" gradientUnits="userSpaceOnUse" gradientTransform="rotate(-90 197.992 42.676) scale(43.1289)"><stop offset="0%" stop-color="#ed1c24"/><stop offset="100%" stop-color="#f15a29"/></linearGradient><linearGradient id="_Linear7" x1="0" y1="0" x2="1" y2="0" gradientUnits="userSpaceOnUse" gradientTransform="rotate(-25 510.071 -122.358) scale(34.823)"><stop offset="0%" stop-color="#f15a29"/><stop offset="100%" stop-color="#ed1c24"/></linearGradient><linearGradient id="_Linear8" x1="0" y1="0" x2="1" y2="0" gradientUnits="userSpaceOnUse" gradientTransform="translate(140.644 240.682) scale(.01172)"><stop offset="0%" stop-color="#f15a29"/><stop offset="100%" stop-color="#ed1c24"/></linearGradient><linearGradient id="_Linear10" x1="0" y1="0" x2="1" y2="0" gradientUnits="userSpaceOnUse" gradientTransform="rotate(-150 113.231 107.066) scale(58.8477)"><stop offset="0%" stop-color="#f15a29"/><stop offset="100%" stop-color="#ed1c24"/></linearGradient><linearGradient id="_Linear12" x1="0" y1="0" x2="1" y2="0" gradientUnits="userSpaceOnUse" gradientTransform="rotate(-90 179.618 81.689) scale(48.2046)"><stop offset="0%" stop-color="#f15a29"/><stop offset="100%" stop-color="#ed1c24"/></linearGradient><linearGradient id="_Linear14" x1="0" y1="0" x2="1" y2="0" gradientUnits="userSpaceOnUse" gradientTransform="rotate(-60 247.564 34.871) scale(37.7124)"><stop offset="0%" stop-color="#f15a29"/><stop offset="100%" stop-color="#ed1c24"/></linearGradient><linearGradient id="_Linear15" x1="0" y1="0" x2="1" y2="0" gradientUnits="userSpaceOnUse" gradientTransform="translate(126.737 243.671) scale(13.9189)"><stop offset="0%" stop-color="#f15a29"/><stop offset="100%" stop-color="#ed1c24"/></linearGradient><linearGradient id="_Linear16" x1="0" y1="0" x2="1" y2="0" gradientUnits="userSpaceOnUse" gradientTransform="translate(140.271 219.683) scale(5.97852)"><stop offset="0%" stop-color="#f15a29"/><stop offset="100%" stop-color="#ed1c24"/></linearGradient></defs></svg>